<?xml version="1.0" standalone="no"?>
<!DOCTYPE svg PUBLIC "-//W3C//DTD SVG 20010904//EN"
 "http://www.w3.org/TR/2001/REC-SVG-20010904/DTD/svg10.dtd">
<svg version="1.0" xmlns="http://www.w3.org/2000/svg"
 width="558.000000pt" height="447.000000pt" viewBox="0 0 558.000000 447.000000"
 preserveAspectRatio="xMidYMid meet">

<g transform="translate(0.000000,447.000000) scale(0.100000,-0.100000)"
fill="#000000" stroke="none">
<path d="M4320 4284 c0 -3 91 -98 202 -210 l202 -204 181 179 c99 99 196 193
215 210 l35 30 -417 1 c-230 0 -418 -3 -418 -6z"/>
<path d="M5315 4281 c-11 -5 -23 -7 -26 -5 -3 2 -6 -3 -6 -11 0 -8 4 -12 9 -9
4 3 8 -1 8 -8 0 -10 2 -10 9 1 7 11 10 9 13 -10 2 -16 9 -24 21 -23 15 2 16
-1 5 -14 -10 -12 -10 -14 0 -8 7 4 12 2 12 -6 0 -9 3 -9 10 2 8 13 10 12 10
-3 0 -12 4 -16 13 -11 8 6 8 3 -1 -9 -12 -14 -11 -16 8 -12 19 4 20 2 9 -13
-7 -9 -9 -14 -5 -10 8 7 41 -28 41 -44 0 -3 3 -10 7 -14 4 -3 6 3 3 15 -5 28
12 27 19 -1 3 -13 3 11 1 54 -4 83 -19 117 -61 136 -28 14 -69 14 -99 3z m137
-155 c7 4 8 2 4 -5 -9 -13 -26 -5 -25 12 0 9 2 8 6 -1 2 -6 10 -9 15 -6z"/>
<path d="M3405 4271 c-3 -6 -15 -8 -26 -6 -16 3 -18 1 -10 -9 11 -13 5 -26
-11 -26 -5 0 -6 5 -3 10 3 6 1 10 -5 10 -6 0 -10 -6 -9 -12 4 -33 -1 -42 -14
-25 -11 15 -12 14 -12 -12 l-1 -30 53 52 c29 28 53 53 53 54 0 7 -9 2 -15 -6z"/>
<path d="M4886 3994 c-77 -79 -138 -146 -135 -148 2 -3 70 60 150 140 127 125
155 159 130 153 -3 -1 -69 -66 -145 -145z"/>
<path d="M5429 4023 c-68 -74 -73 -87 -13 -33 34 30 62 58 63 63 2 17 -17 5
-50 -30z"/>
<path d="M2360 3985 c19 -19 36 -35 39 -35 3 0 -10 16 -29 35 -19 19 -36 35
-39 35 -3 0 10 -16 29 -35z"/>
<path d="M5160 3739 c-74 -75 -136 -143 -138 -150 -3 -8 -3 -12 -1 -9 3 3 67
69 144 147 76 79 137 144 134 145 -2 2 -65 -58 -139 -133z"/>
<path d="M2387 3802 c-64 -64 -67 -70 -66 -112 1 -44 15 -118 18 -92 0 6 6 12
12 12 5 0 7 -5 3 -12 -4 -7 -3 -8 5 -4 9 6 9 11 1 21 -10 12 -8 13 10 10 18
-3 20 -2 10 10 -10 12 -8 13 10 10 18 -3 20 -2 10 10 -10 12 -8 13 10 10 18
-4 20 -2 9 11 -10 12 -10 15 1 12 8 -2 14 4 15 12 0 9 9 15 23 14 19 -1 20 1
10 14 -10 12 -10 14 0 8 7 -4 12 -1 12 9 0 9 5 13 10 10 6 -4 7 -12 4 -18 -4
-7 -3 -8 2 -4 5 5 9 18 9 30 0 11 7 22 15 24 13 4 13 3 0 -6 -9 -7 -10 -11 -3
-11 6 0 15 5 18 11 5 7 14 4 28 -8 12 -9 -3 8 -33 40 -30 31 -59 57 -65 57 -6
0 -41 -30 -78 -68z"/>
<path d="M5471 3650 c-2 -19 -3 -46 -3 -60 1 -19 -1 -21 -8 -10 -5 8 -7 17 -4
21 2 4 -1 11 -7 15 -8 4 -9 3 -5 -5 4 -6 0 -14 -8 -17 -9 -3 -16 -10 -16 -16
0 -5 5 -6 12 -2 7 4 8 3 4 -5 -6 -9 -11 -9 -21 -1 -10 9 -13 7 -10 -7 4 -26
-14 -46 -31 -33 -9 9 -12 7 -9 -7 1 -10 -11 -33 -28 -50 -24 -26 -33 -30 -44
-21 -8 6 -13 7 -12 2 4 -21 -2 -35 -11 -29 -14 9 -12 -8 3 -25 6 -8 2 -6 -11
5 -22 18 -23 18 -16 0 5 -13 4 -16 -4 -11 -7 4 -12 2 -12 -4 0 -6 -6 -8 -12
-4 -7 4 14 -22 48 -57 33 -35 92 -97 129 -137 38 -39 70 -70 72 -69 2 2 5 60
7 128 1 68 1 99 -1 69 l-5 -55 -14 30 c-8 17 -12 21 -9 10 6 -20 6 -20 -13 0
-11 11 -18 23 -16 26 2 4 -6 15 -19 25 l-22 19 18 -22 c14 -16 15 -23 6 -29
-7 -4 -10 -3 -6 3 4 6 0 16 -8 23 -24 20 -19 31 40 90 l56 56 -4 95 c-1 52 -4
78 -6 59z"/>
<path d="M2596 3462 l-137 -137 -69 75 c-38 41 -69 71 -70 65 0 -5 32 -42 72
-82 59 -60 69 -73 54 -79 -13 -5 -31 7 -67 42 -26 26 -51 45 -55 42 -9 -10 7
-128 18 -128 5 0 7 -4 3 -9 -3 -5 2 -11 11 -13 14 -2 13 -8 -10 -34 -26 -32
-31 -59 -20 -102 5 -18 9 -20 20 -11 8 6 11 15 8 20 -3 5 -1 8 4 7 5 -2 39 27
75 65 37 37 69 67 73 67 4 0 19 -10 33 -22 14 -13 5 0 -21 28 -27 27 -48 54
-48 60 0 18 238 246 254 242 15 -3 276 -255 276 -266 0 -4 -57 -64 -127 -134
l-128 -128 114 -113 c99 -97 105 -101 43 -32 -65 73 -94 116 -57 85 12 -10 14
-8 10 9 -2 12 1 20 8 18 6 -1 11 5 12 13 0 8 7 15 15 15 8 1 14 6 13 12 -2 7
6 10 18 8 18 -4 19 -2 7 12 -12 15 -11 15 8 5 16 -9 21 -8 21 3 0 8 -5 11 -11
8 -6 -3 11 17 38 45 27 28 53 49 58 46 4 -3 8 3 8 13 0 15 2 16 10 3 8 -13 10
-12 10 3 0 9 5 17 11 17 5 0 7 -5 3 -12 -4 -7 -3 -8 5 -4 9 6 9 11 1 21 -8 10
-8 15 1 21 7 4 9 3 5 -4 -4 -7 2 -10 14 -9 17 1 11 11 -37 57 -32 31 -114 113
-183 184 -69 70 -132 131 -141 136 -12 7 -47 -23 -153 -128z"/>
<path d="M5380 3539 c0 -5 5 -7 10 -4 6 3 10 8 10 11 0 2 -4 4 -10 4 -5 0 -10
-5 -10 -11z"/>
<path d="M5340 3499 c0 -5 -5 -7 -12 -3 -6 4 -8 3 -4 -4 3 -6 -2 -15 -11 -21
-10 -5 -15 -12 -12 -15 3 -3 18 8 34 24 16 17 23 30 17 30 -7 0 -12 -5 -12
-11z"/>
<path d="M2996 3121 c-28 -29 -34 -41 -24 -46 7 -5 10 -5 6 -1 -9 11 23 46 35
39 6 -3 8 -2 5 3 -8 12 17 35 28 26 4 -4 4 -1 0 6 -9 16 -7 17 -50 -27z"/>
<path d="M2575 2933 c-71 -73 -134 -133 -141 -133 -6 0 -32 22 -57 49 -26 28
-49 46 -51 42 -3 -4 17 -29 44 -56 26 -26 46 -53 44 -60 -3 -7 6 -26 20 -42
14 -17 22 -33 19 -37 -4 -4 1 -4 11 0 14 5 17 4 12 -4 -4 -7 -1 -12 8 -12 9 0
16 -5 16 -11 0 -5 -5 -7 -12 -3 -7 4 -8 3 -4 -4 4 -6 14 -8 23 -5 11 4 14 3 9
-5 -4 -7 -1 -12 8 -12 9 0 16 -5 16 -11 0 -5 -5 -7 -12 -3 -7 4 -8 3 -4 -4 4
-6 13 -9 20 -6 7 3 20 -5 28 -18 15 -22 13 -26 -47 -93 l-63 -70 -22 20 -21
19 2 -41 c2 -23 6 -40 10 -37 6 3 81 -70 179 -176 18 -19 38 -35 45 -35 7 0
50 -39 95 -87 45 -49 87 -88 93 -88 6 0 -17 29 -52 64 l-63 64 23 26 c12 14
29 26 36 26 7 0 13 5 13 11 0 5 -6 7 -12 3 -8 -4 -10 -3 -5 2 5 5 14 9 20 9 7
1 11 7 9 15 -2 8 -1 12 3 8 4 -4 23 11 43 33 20 21 41 39 48 39 6 0 17 7 24
15 7 8 17 12 24 8 6 -3 -5 10 -23 30 -19 21 -42 37 -50 37 -9 0 -62 -46 -118
-102 l-103 -103 -95 95 c-52 52 -95 99 -95 105 0 6 47 57 104 114 l104 104
-59 61 c-32 34 -59 64 -59 67 0 4 19 3 43 -1 23 -5 101 -13 172 -19 72 -7 173
-18 225 -27 52 -8 106 -16 119 -18 14 -2 36 0 49 5 15 6 21 5 17 -1 -3 -6 4
-10 16 -10 18 0 21 4 16 27 -5 26 -4 26 9 9 7 -10 11 -24 7 -30 -3 -6 5 0 20
13 16 15 23 29 19 40 -5 14 -4 15 14 1 17 -14 18 -14 6 2 -21 26 -10 33 55 36
l60 3 46 -50 c47 -50 60 -78 33 -68 -10 4 -13 1 -9 -9 3 -7 13 -14 22 -15 9 0
25 -2 36 -4 304 -45 595 -78 712 -79 39 -1 69 -4 67 -8 -5 -8 34 -15 140 -24
78 -6 80 -7 133 -57 l54 -50 39 38 c51 49 66 37 17 -13 -56 -57 -44 -63 13 -7
l50 49 132 -16 c73 -9 213 -26 311 -38 98 -13 180 -20 183 -17 3 3 8 88 10
189 l5 184 -918 -2 -918 -3 -116 115 -116 115 -101 -109 c-58 -62 -112 -112
-125 -114 -49 -9 -49 4 0 56 l48 51 -55 -52 c-55 -53 -56 -53 -120 -53 l-65 0
-103 103 c-101 101 -102 103 -86 126 15 21 15 24 -2 40 -18 16 -25 10 -149
-116z m364 -187 c9 -11 9 -16 -1 -22 -7 -4 -10 -4 -6 1 4 4 3 14 -3 22 -6 7
-9 13 -6 13 2 0 10 -6 16 -14z m327 -11 c-4 -39 -19 -48 -33 -19 -11 23 -10
24 4 12 15 -11 16 -11 10 5 -4 11 -3 16 3 12 6 -3 10 -1 10 4 0 6 2 11 4 11 3
0 3 -11 2 -25z m638 -1 c3 -8 2 -12 -4 -9 -6 3 -10 10 -10 16 0 14 7 11 14 -7z
m-1024 0 c0 -8 -19 -13 -24 -6 -3 5 1 9 9 9 8 0 15 -2 15 -3z m40 0 c0 -8 -19
-13 -24 -6 -3 5 1 9 9 9 8 0 15 -2 15 -3z m2466 -89 c1 -8 -1 -17 -5 -19 -4
-3 -7 6 -7 19 0 25 8 25 12 0z m-29 -12 c-4 -3 -2 -12 4 -19 7 -8 6 -14 -2
-20 -7 -4 -9 -3 -5 4 3 6 2 13 -4 17 -10 6 -5 25 7 25 4 0 3 -3 0 -7z m-2417
-287 c0 -2 -8 -10 -17 -17 -16 -13 -17 -12 -4 4 13 16 21 21 21 13z"/>
<path d="M3296 2748 c3 -5 10 -6 15 -3 13 9 11 12 -6 12 -8 0 -12 -4 -9 -9z"/>
<path d="M3700 2471 c-80 -26 -131 -54 -183 -103 -70 -65 -334 -366 -374 -426
-50 -76 -109 -241 -123 -344 -21 -155 16 -357 95 -513 23 -47 41 -85 39 -85
-2 0 -19 24 -39 52 -19 29 -35 48 -35 42 0 -6 31 -58 69 -115 111 -169 290
-336 457 -429 99 -55 238 -106 318 -116 46 -6 58 -14 116 -71 36 -35 61 -63
55 -62 -5 1 -23 -3 -39 -10 -20 -8 -26 -16 -22 -28 6 -14 4 -14 -11 -2 -9 8
-14 9 -10 3 3 -5 -3 -23 -14 -40 -10 -16 -19 -24 -19 -17 0 6 5 15 10 18 6 3
10 12 10 18 0 7 -5 4 -11 -6 -6 -9 -14 -15 -18 -13 -4 3 -7 -5 -7 -16 1 -14
-9 -27 -24 -35 -14 -7 -20 -13 -15 -14 6 0 -1 -5 -15 -9 -16 -5 11 -8 78 -9
56 -1 102 3 102 8 0 5 17 27 39 49 34 34 41 37 56 26 13 -10 15 -17 7 -26 -7
-10 -5 -19 8 -35 18 -22 24 -23 200 -23 l181 0 26 30 c24 29 43 39 43 22 0 -5
-9 -18 -20 -30 -12 -12 -17 -22 -12 -22 5 0 19 11 31 24 16 17 19 26 11 31 -8
5 -3 17 17 37 26 28 157 142 141 123 -5 -4 1 -15 13 -23 12 -8 18 -20 14 -29
-4 -13 -3 -14 9 -4 13 11 15 9 11 -9 -4 -18 -2 -20 11 -9 8 7 14 8 12 3 -3
-11 49 -64 56 -56 3 3 6 -1 6 -8 0 -7 11 -23 25 -36 14 -13 25 -20 25 -17 0 3
7 0 16 -7 13 -11 19 -9 41 12 l25 26 -106 108 c-58 60 -151 156 -206 214
l-100 105 -53 -55 c-28 -31 -76 -82 -106 -114 -48 -52 -55 -56 -69 -42 -10 10
-12 20 -6 28 5 8 -3 0 -18 -17 l-27 -30 -25 26 -24 26 81 33 c155 63 203 104
437 369 80 91 180 204 223 253 68 76 78 92 75 120 -2 27 -13 39 -64 72 -33 23
-80 58 -104 79 -25 21 -52 36 -61 35 -9 -2 -119 -118 -244 -258 -125 -140
-251 -275 -279 -299 -61 -53 -169 -105 -263 -127 -156 -37 -364 1 -523 95 -74
44 -176 133 -212 185 -19 27 -16 26 25 -11 26 -24 49 -43 52 -43 3 0 -11 21
-31 47 -20 26 -46 69 -59 95 l-23 48 106 108 c157 157 217 206 239 194 37 -21
76 -70 69 -89 -4 -10 9 0 28 22 19 22 35 43 36 47 0 3 -66 74 -147 157 l-148
151 -99 -110 c-54 -61 -104 -110 -112 -110 -27 0 -23 21 13 62 36 41 36 42 4
13 -33 -30 -33 -30 -26 -5 21 72 72 177 108 223 23 29 98 116 169 194 155 172
197 198 318 198 82 0 153 -21 208 -62 17 -13 32 -21 32 -17 0 20 41 -35 64
-86 36 -79 44 -169 22 -244 -17 -58 -45 -92 -387 -473 -34 -38 -36 -54 -9 -78
20 -18 20 -18 -7 -49 l-28 -31 31 28 32 28 93 -82 93 -82 18 22 c9 13 97 113
195 223 98 110 190 219 206 242 93 144 99 357 13 531 -35 70 -139 205 -158
205 -5 0 -37 24 -70 54 -67 61 -194 129 -283 151 -81 20 -226 19 -295 -4z"/>
<path d="M4965 2290 c-60 -60 -105 -110 -100 -110 6 0 60 50 120 110 60 61
105 110 100 110 -6 0 -60 -49 -120 -110z"/>
<path d="M5346 2231 c-22 -23 -36 -44 -33 -48 10 -9 80 62 76 76 -3 7 -22 -6
-43 -28z"/>
<path d="M2845 2250 c-3 -6 1 -7 9 -4 18 7 21 14 7 14 -6 0 -13 -4 -16 -10z"/>
<path d="M5230 2217 c0 -8 -10 -22 -22 -33 -23 -19 -23 -19 -5 2 9 11 17 24
17 28 0 4 -11 -6 -25 -22 -14 -17 -25 -34 -25 -40 0 -5 -8 -16 -17 -23 -15
-11 -16 -11 -5 1 6 8 12 18 12 23 0 5 -12 -6 -27 -25 -16 -18 -31 -34 -35 -36
-5 -2 -8 -8 -8 -13 0 -6 5 -7 12 -3 7 4 8 3 4 -5 -6 -9 -11 -9 -21 -1 -12 10
-13 8 -10 -10 4 -19 2 -20 -12 -8 -14 10 -15 10 -9 0 5 -9 1 -15 -13 -19 -11
-3 -18 -9 -15 -14 3 -5 10 -7 15 -3 5 3 8 1 7 -3 -4 -14 74 -97 270 -287 l72
-70 0 88 0 89 -22 -19 c-18 -16 -21 -17 -15 -2 4 13 1 16 -14 13 -18 -4 -19
-2 -8 13 7 9 10 14 6 11 -4 -4 -31 17 -60 45 -49 49 -50 49 -12 6 34 -39 32
-38 -16 10 -32 30 -55 58 -52 63 2 4 -1 6 -8 5 -7 -2 -13 4 -14 12 0 8 -6 15
-14 15 -32 0 -17 24 59 100 l80 79 -22 23 c-24 26 -48 30 -48 10z"/>
<path d="M2979 2085 c-58 -58 -103 -105 -100 -105 4 0 42 36 86 81 107 108
109 109 151 68 27 -26 36 -30 47 -20 10 10 5 19 -25 47 -21 19 -41 34 -45 34
-5 0 -56 -47 -114 -105z"/>
<path d="M2605 2140 c-24 -25 -27 -32 -15 -43 10 -10 11 -9 5 3 -8 13 -6 13 8
1 9 -7 14 -18 10 -24 -3 -5 -2 -7 4 -4 6 4 19 -1 29 -9 10 -9 13 -12 5 -8 -9
5 -12 3 -7 -4 4 -7 14 -12 22 -12 8 0 19 -11 24 -25 5 -14 12 -25 15 -25 4 0
3 5 -1 12 -4 7 -3 8 4 4 7 -4 12 -13 12 -21 0 -8 5 -17 12 -21 7 -5 8 -2 3 7
-6 11 -5 11 6 -1 8 -8 21 -20 29 -28 11 -10 11 -12 1 -6 -9 5 -12 3 -7 -4 4
-7 14 -12 21 -12 25 0 5 -32 -64 -103 l-66 -67 85 -86 c47 -47 114 -112 150
-144 l65 -58 0 99 0 98 -48 -47 -48 -47 -75 77 c-73 74 -75 78 -60 99 8 12 28
30 43 40 15 11 25 19 21 19 -4 0 24 29 61 64 l69 65 -22 19 c-11 11 -27 17
-33 15 -7 -3 -62 43 -121 101 l-108 106 -29 -30z"/>
<path d="M2396 2139 c-2 -8 -11 -36 -20 -63 -17 -54 -18 -52 38 -82 27 -15 29
-15 61 16 20 19 31 38 28 47 -5 12 -7 12 -14 1 -7 -10 -9 -9 -9 5 0 11 -4 15
-12 11 -6 -4 -9 -3 -5 2 6 10 -8 30 -40 58 -18 15 -23 16 -27 5z"/>
<path d="M2545 1870 c38 -38 72 -70 74 -70 3 0 -26 32 -64 70 -38 39 -72 70
-74 70 -3 0 26 -31 64 -70z"/>
<path d="M5373 1613 c-11 -23 -26 -37 -36 -37 -9 1 -14 -2 -11 -7 3 -5 0 -17
-6 -26 -11 -17 -11 -17 -6 0 3 11 2 15 -4 12 -6 -3 -10 -15 -10 -25 0 -10 -4
-22 -10 -25 -6 -3 -7 1 -4 12 5 16 4 16 -6 -1 -23 -35 -43 -55 -52 -50 -4 3
-5 -2 -2 -11 5 -11 2 -14 -12 -8 -12 4 -15 3 -10 -5 4 -7 2 -12 -3 -12 -6 0
-11 5 -11 12 0 6 -3 8 -7 4 -4 -3 15 -29 42 -56 l49 -50 56 55 c31 31 58 54
61 51 2 -2 5 42 7 100 1 57 1 104 -1 104 -2 0 -12 -17 -24 -37z"/>
<path d="M2415 1529 c-4 -6 -5 -12 -2 -15 2 -3 7 2 10 11 7 17 1 20 -8 4z"/>
<path d="M3720 1427 c0 -2 15 -16 33 -33 l32 -29 -29 33 c-28 30 -36 37 -36
29z"/>
<path d="M3471 1212 c-46 -45 -82 -84 -80 -86 2 -3 43 33 90 80 48 46 84 85
80 87 -3 1 -44 -35 -90 -81z"/>
<path d="M3665 990 c-55 -55 -95 -100 -89 -100 9 0 55 46 159 158 71 77 31 44
-70 -58z"/>
<path d="M4141 1028 c-84 -81 -155 -158 -150 -163 3 -2 54 45 114 105 109 110
138 156 36 58z"/>
<path d="M3913 913 c-7 -3 -13 -9 -13 -14 0 -6 6 -7 13 -3 7 4 9 3 4 -2 -5 -5
-14 -9 -20 -9 -7 -1 -11 -6 -10 -12 1 -6 -4 -17 -12 -23 -8 -7 -15 -9 -15 -5
0 4 -7 2 -15 -5 -8 -7 -12 -16 -9 -21 3 -5 2 -9 -3 -8 -24 4 -34 -4 -13 -11
55 -18 83 -10 119 31 l34 40 -24 23 c-13 13 -30 22 -36 19z"/>
<path d="M4280 890 c-9 -6 -10 -10 -3 -10 6 0 15 5 18 10 8 12 4 12 -15 0z"/>
<path d="M3860 859 c0 -5 5 -7 10 -4 6 3 10 8 10 11 0 2 -4 4 -10 4 -5 0 -10
-5 -10 -11z"/>
<path d="M1070 341 c0 -6 4 -13 10 -16 6 -3 7 1 4 9 -7 18 -14 21 -14 7z"/>
<path d="M2410 226 c0 -16 22 -46 41 -57 18 -9 19 -8 11 8 -12 21 -52 59 -52
49z"/>
<path d="M3946 193 c-6 -14 -5 -15 5 -6 7 7 10 15 7 18 -3 3 -9 -2 -12 -12z"/>
<path d="M4985 150 c-19 -8 -19 -9 3 -9 12 -1 22 4 22 9 0 6 -1 10 -2 9 -2 0
-12 -4 -23 -9z"/>
</g>
</svg>
